<svg width="24" height="24" xmlns="http://www.w3.org/2000/svg">

 <g>
  <title>background</title>
  <rect fill="none" id="canvas_background" height="26" width="26" y="-1" x="-1"/>
 </g>
 <g>
  <title>Layer 1</title>
  <path stroke="null" id="world" fill="#333332" d="m12.002348,0c-6.629168,0 -12.002348,5.34754 -12.002348,11.945074s5.37318,11.945074 12.002348,11.945074s12.002348,-5.34754 12.002348,-11.945074s-5.37318,-11.945074 -12.002348,-11.945074zm10.434299,11.559749l-4.642973,0c-0.042589,-1.70699 -0.347681,-3.337685 -0.888948,-4.830434c1.045366,-0.433876 2.011748,-1.011093 2.892953,-1.693118c1.5665,1.750146 2.546046,4.022793 2.638968,6.523552zm-10.862512,10.767521c-1.286961,-1.06658 -2.366398,-2.451438 -3.15623,-4.059784c1.013618,-0.315196 2.087634,-0.487821 3.197271,-0.523271l0,4.584597c-0.013938,0 -0.027102,-0.000771 -0.04104,-0.001541zm0.854877,-20.764393c1.460415,1.20992 2.652132,2.830597 3.458225,4.721002c-1.104216,0.375307 -2.277349,0.5934 -3.498491,0.631933l0,-5.355247c0.014713,0.000771 0.027102,0.001541 0.040266,0.002312zm1.290059,0.13101c2.137192,0.353728 4.054471,1.347096 5.547408,2.785129c-0.810739,0.618832 -1.69659,1.142874 -2.654455,1.539759c-0.704654,-1.662292 -1.693493,-3.131921 -2.892953,-4.324888zm-2.103895,-0.133322l0,5.355247c-1.221142,-0.039303 -2.395049,-0.256626 -3.498491,-0.631933c0.806093,-1.890404 1.99781,-3.511081 3.458225,-4.721002c0.013938,-0.000771 0.026328,-0.001541 0.040266,-0.002312zm-4.223278,4.458981c-0.956316,-0.396885 -1.842941,-0.920927 -2.65368,-1.539759c1.492163,-1.438033 3.410216,-2.431401 5.547408,-2.785129c-1.200235,1.192195 -2.188299,2.661825 -2.893727,4.324888zm0.432859,0.974872c1.19404,0.412298 2.466289,0.652741 3.790419,0.692814l0,3.872516l-4.629809,0c0.041815,-1.613741 0.329097,-3.155812 0.83939,-4.56533zm3.790419,5.33598l0,4.643166c-1.221142,0.036991 -2.402018,0.235819 -3.514752,0.59263c-0.670583,-1.58908 -1.066273,-3.359263 -1.115057,-5.235796l4.629809,0zm-1.32955,9.865861c-1.914955,-0.316737 -3.654134,-1.146727 -5.068088,-2.352024c0.76273,-0.526354 1.587407,-0.97179 2.468612,-1.310105c0.675229,1.393335 1.558757,2.630228 2.599476,3.662129zm2.103895,0.133322l0,-4.584597c1.108862,0.03545 2.183653,0.208075 3.197271,0.523271c-0.790606,1.608346 -1.869269,2.993204 -3.15623,4.059784c-0.013164,0 -0.027102,0.000771 -0.04104,0.001541zm3.929027,-3.795451c0.88043,0.338315 1.704333,0.784522 2.468612,1.310105c-1.413954,1.204526 -3.153133,2.035287 -5.068088,2.352024c1.04072,-1.0319 1.923473,-2.268793 2.599476,-3.662129zm-0.414275,-0.967936c-1.113508,-0.356811 -2.294384,-0.555639 -3.514752,-0.59263l0,-4.643166l4.629809,0c-0.048784,1.876533 -0.445248,3.646716 -1.115057,5.235796zm-3.514752,-6.006446l0,-3.872516c1.323356,-0.040074 2.595605,-0.279746 3.790419,-0.692044c0.509519,1.409519 0.796801,2.951589 0.83939,4.56533l-4.629809,0l0,-0.000771zm-8.18173,-6.523552c0.881205,0.682025 1.847587,1.259242 2.892179,1.693118c-0.541267,1.492749 -0.846359,3.123444 -0.888948,4.830434l-4.642973,0c0.092921,-2.500759 1.072468,-4.773406 2.639742,-6.523552zm-2.639742,7.294202l4.642973,0c0.048009,1.969011 0.46151,3.828589 1.163841,5.500129c-0.981095,0.380701 -1.895597,0.887789 -2.739633,1.488125c-1.818162,-1.801009 -2.965741,-4.263236 -3.067181,-6.988254zm17.801418,6.987483c-0.844036,-0.599566 -1.758538,-1.107424 -2.740407,-1.488125c0.703105,-1.67154 1.115831,-3.531118 1.164615,-5.500129l4.642973,0c-0.101439,2.725789 -1.249793,5.188016 -3.067181,6.988254z"/>
 </g>
</svg>