<svg width="24" height="25" xmlns="http://www.w3.org/2000/svg">

 <g>
  <title>background</title>
  <rect fill="none" id="canvas_background" height="27" width="26" y="-1" x="-1"/>
 </g>
 <g>
  <title fill="#ffffff">Layer 1</title>
  <path stroke="null" id="world" fill="#ffffff" d="m11.9484,0c-6.599371,0 -11.9484,5.587524 -11.9484,12.481139s5.349029,12.481139 11.9484,12.481139s11.9484,-5.587524 11.9484,-12.481139s-5.349029,-12.481139 -11.9484,-12.481139zm10.3874,12.078522l-4.622104,0c-0.042398,-1.783595 -0.346118,-3.487472 -0.884952,-5.047212c1.040667,-0.453347 2.002706,-1.056468 2.87995,-1.769101c1.559459,1.828688 2.534603,4.203326 2.627106,6.816313zm-10.813688,11.250741c-1.281177,-1.114445 -2.355762,-2.561452 -3.142044,-4.241977c1.009062,-0.329341 2.078251,-0.509714 3.1829,-0.546754l0,4.790342c-0.013876,0 -0.02698,-0.000805 -0.040856,-0.00161zm0.851034,-21.696246c1.45385,1.264219 2.640211,2.957627 3.442681,4.932868c-1.099253,0.392149 -2.267113,0.620031 -3.482766,0.660293l0,-5.595577c0.014646,0.000805 0.02698,0.00161 0.040085,0.002416zm1.28426,0.13689c2.127586,0.369603 4.036247,1.40755 5.522473,2.910119c-0.807095,0.646604 -1.688964,1.194163 -2.642524,1.608859c-0.701487,-1.736891 -1.685881,-3.272474 -2.87995,-4.518978zm-2.094439,-0.139306l0,5.595577c-1.215653,-0.041067 -2.384284,-0.268143 -3.482766,-0.660293c0.80247,-1.975241 1.98883,-3.66865 3.442681,-4.932868c0.013876,-0.000805 0.026209,-0.00161 0.040085,-0.002416zm-4.204295,4.659089c-0.952018,-0.414696 -1.834658,-0.962256 -2.641753,-1.608859c1.485456,-1.502568 3.394887,-2.540516 5.522473,-2.910119c-1.19484,1.245698 -2.178463,2.781281 -2.880721,4.518978zm0.430913,1.018622c1.188673,0.430801 2.455204,0.682034 3.773382,0.723906l0,4.046305l-4.608999,0c0.041627,-1.686162 0.327617,-3.297436 0.835617,-4.770211zm3.773382,5.575446l0,4.85154c-1.215653,0.038651 -2.391222,0.246402 -3.498954,0.619226c-0.667569,-1.660394 -1.06148,-3.510018 -1.110045,-5.470765l4.608999,0zm-1.323574,10.308616c-1.906348,-0.330952 -3.63771,-1.198189 -5.045308,-2.457577c0.759302,-0.549975 1.580272,-1.015401 2.457516,-1.368899c0.672194,1.455865 1.55175,2.748266 2.587792,3.826476zm2.094439,0.139306l0,-4.790342c1.103878,0.037041 2.173838,0.217413 3.1829,0.546754c-0.787053,1.680525 -1.860867,3.127532 -3.142044,4.241977c-0.013105,0 -0.02698,0.000805 -0.040856,0.00161zm3.911367,-3.965781c0.876473,0.353498 1.696673,0.819729 2.457516,1.368899c-1.407599,1.258582 -3.13896,2.126625 -5.045308,2.457577c1.036042,-1.078209 1.914827,-2.370611 2.587792,-3.826476zm-0.412413,-1.011375c-1.108503,-0.372824 -2.284072,-0.580574 -3.498954,-0.619226l0,-4.85154l4.608999,0c-0.048564,1.960747 -0.443247,3.810371 -1.110045,5.470765zm-3.498954,-6.276l0,-4.046305c1.317407,-0.041872 2.583938,-0.2923 3.773382,-0.723101c0.507229,1.472774 0.79322,3.084049 0.835617,4.770211l-4.608999,0l0,-0.000805zm-8.144955,-6.816313c0.877244,0.712633 1.839283,1.315754 2.879179,1.769101c-0.538834,1.55974 -0.842555,3.263617 -0.884952,5.047212l-4.622104,0c0.092504,-2.612987 1.067647,-4.987624 2.627877,-6.816313zm-2.627877,7.621547l4.622104,0c0.047794,2.057375 0.459435,4.000406 1.158609,5.746961c-0.976685,0.397786 -1.887076,0.92763 -2.727319,1.554908c-1.80999,-1.881834 -2.952411,-4.454559 -3.053394,-7.301869zm17.721405,7.301064c-0.840242,-0.626473 -1.750633,-1.157122 -2.72809,-1.554908c0.699945,-1.746554 1.110816,-3.689586 1.15938,-5.746961l4.622104,0c-0.100983,2.848115 -1.244175,5.420841 -3.053394,7.301869z"/>
  <path d="m2.082167,8.830208c0,0 0.044395,0 0.08879,0.08879c0.08879,0.17758 0.109159,0.25276 0.133185,0.310765c0.016989,0.041016 0,0.08879 0.044395,0.133184l0,0.08879l0,0.044395l0,0.08879" id="svg_1" stroke-opacity="null" stroke-width="null" stroke="null" fill="#ffffff"/>
  <polyline stroke-linecap="round" id="svg_2" points="3.369622285835156,8.075492704336416 3.369622285835156,8.075492704336416 " stroke-opacity="null" stroke-width="null" stroke="null" fill="none"/>
  <polyline transform="rotate(-92 4.479497432708741,6.4772725105285645) " stroke-linecap="round" id="svg_3" points="4.479497304654565,6.47727267723647 4.479497304654565,6.47727267723647 " stroke-opacity="null" stroke-width="null" stroke="null" fill="none"/>
  <polyline stroke-linecap="round" id="svg_4" points="28.630377714164847,25.922283006952465 28.630377714164847,25.922283006952465 " stroke-opacity="null" stroke-width="null" stroke="null" fill="none"/>
 </g>
</svg>